<svg width="549" height="823" xmlns="http://www.w3.org/2000/svg" xmlns:xlink="http://www.w3.org/1999/xlink" overflow="hidden"><defs><clipPath id="clip0"><rect x="0" y="0" width="549" height="823"/></clipPath></defs><g clip-path="url(#clip0)"><rect x="0" y="0" width="549" height="822.584" fill="#FFFFFF"/><path d="M479.882 458.09C481.359 456.152 481.802 451.503 481.063 447.628 479.734 441.816 479.734 441.816 479.734 441.816 478.996 437.941 477.224 436.779 475.895 438.716 474.418 440.654 473.975 445.691 474.713 449.178 475.895 454.99 475.895 454.99 475.895 454.99 476.781 458.865 478.553 460.415 479.882 458.09M496.274 442.591C495.093 439.879 493.173 439.879 492.139 442.978 482.54 470.101 482.54 470.101 482.54 470.101 468.658 477.076 468.658 477.076 468.658 477.076 467.034 478.238 466 482.113 466.295 486.375 466.591 490.25 468.215 492.962 469.692 492.187 480.62 486.762 480.62 486.762 480.62 486.762 479.143 515.435 479.143 515.435 479.143 515.435 478.996 519.697 480.177 523.572 481.802 523.959 483.426 524.734 484.903 521.635 485.051 517.372 486.38 488.7 486.38 488.7 486.38 488.7 496.422 501.099 496.422 501.099 496.422 501.099 497.899 502.649 499.523 501.099 500.262 497.224 501 493.349 500.262 488.7 498.932 487.15 488.89 474.751 488.89 474.751 488.89 474.751 496.422 453.44 496.422 453.44 496.422 453.44 497.456 450.34 497.456 445.691 496.274 442.591" fill="#FFFFFF" fill-rule="evenodd"/><path d="M441.913 532.003C443.948 528.878 444.674 522.236 443.512 516.766 441.767 508.17 441.767 508.17 441.767 508.17 440.605 502.7 438.134 500.747 436.099 503.482 434.064 506.607 433.337 513.64 434.355 519.11 436.244 527.706 436.244 527.706 436.244 527.706 437.407 533.176 439.878 535.129 441.913 532.003M465.314 509.342C463.57 505.044 460.953 505.435 459.355 510.124 445.692 549.585 445.692 549.585 445.692 549.585 425.779 560.135 425.779 560.135 425.779 560.135 423.453 561.307 422 567.167 422.436 573.028 422.872 579.28 425.052 583.187 427.378 582.015 442.785 573.81 442.785 573.81 442.785 573.81 440.895 616.397 440.895 616.397 440.895 616.397 440.605 622.258 442.203 628.118 444.529 628.9 446.855 629.681 448.889 624.993 449.18 619.132 451.215 576.935 451.215 576.935 451.215 576.935 465.459 594.908 465.459 594.908 465.459 594.908 467.639 597.252 470.11 594.908 470.983 589.438 472 583.577 471.128 576.935 468.948 574.2 454.703 556.618 454.703 556.618 454.703 556.618 465.459 525.361 465.459 525.361 465.459 525.361 467.058 520.673 466.913 513.64 465.314 509.342" fill="#FFFFFF" fill-rule="evenodd"/><path d="M490.554 587.257C493.038 584.52 494.062 576.7 493.038 570.053 491.431 559.497 491.431 559.497 491.431 559.497 490.262 552.85 487.485 549.722 485 552.85 482.515 555.587 481.346 563.406 482.369 569.662 484.123 580.219 484.123 580.219 484.123 580.219 485.146 586.866 488.069 589.994 490.554 587.257M518.469 568.489C516.715 563.016 513.646 562.625 511.6 567.316 494.062 608.371 494.062 608.371 494.062 608.371 470.677 614.236 470.677 614.236 470.677 614.236 467.9 615.018 466 621.274 466.292 628.312 466.439 635.74 468.777 640.823 471.554 640.041 489.823 635.74 489.823 635.74 489.823 635.74 485.731 683.442 485.731 683.442 485.731 683.442 485.146 690.479 486.754 697.517 489.385 699.081 492.015 700.645 494.646 696.344 495.231 689.307 499.177 641.605 499.177 641.605 499.177 641.605 514.962 666.629 514.962 666.629 514.962 666.629 517.3 670.148 520.223 668.193 521.685 661.937 523 656.072 522.269 647.861 519.931 644.342 504.292 619.319 504.292 619.319 504.292 619.319 518.031 586.866 518.031 586.866 518.031 586.866 520.077 582.174 520.223 573.963 518.469 568.489" fill="#FFFFFF" fill-rule="evenodd"/><path d="M1.00041-3.55738e-05 1.0009 14.0061C1.00092 14.5586 0.553042 15.0065 0.000533621 15.0065-0.551975 15.0065-0.999887 14.5586-0.999907 14.0061L-1.00041 3.55738e-05C-1.00042-0.552473-0.552544-1.00039-3.55738e-05-1.00041 0.552473-1.00042 1.00039-0.552544 1.00041-3.55738e-05ZM4.00207 12.6721 0.000735206 20.6755-4.00117 12.6724Z" fill="#CF0360" transform="matrix(-1.00051 0 0 1 205.001 611.69)"/><path d="M1.00041-3.55738e-05 1.0009 14.0061C1.00092 14.5586 0.553042 15.0065 0.000533621 15.0065-0.551975 15.0065-0.999887 14.5586-0.999907 14.0061L-1.00041 3.55738e-05C-1.00042-0.552473-0.552544-1.00039-3.55738e-05-1.00041 0.552473-1.00042 1.00039-0.552544 1.00041-3.55738e-05ZM4.00207 12.6721 0.000735206 20.6755-4.00117 12.6724Z" fill="#CF0360" transform="matrix(-1.00051 0 0 1 344.001 611.69)"/><path d="M1.00041-3.55738e-05 1.0009 14.0061C1.00092 14.5586 0.553042 15.0065 0.000533621 15.0065-0.551975 15.0065-0.999887 14.5586-0.999907 14.0061L-1.00041 3.55738e-05C-1.00042-0.552473-0.552544-1.00039-3.55738e-05-1.00041 0.552473-1.00042 1.00039-0.552544 1.00041-3.55738e-05ZM4.00207 12.6721 0.000735206 20.6755-4.00117 12.6724Z" fill="#CF0360" transform="matrix(-1.00051 0 0 1 275.001 122.938)"/><path d="M1.00041-3.55738e-05 1.0009 14.0061C1.00092 14.5586 0.553042 15.0065 0.000533621 15.0065-0.551975 15.0065-0.999887 14.5586-0.999907 14.0061L-1.00041 3.55738e-05C-1.00042-0.552473-0.552544-1.00039-3.55738e-05-1.00041 0.552473-1.00042 1.00039-0.552544 1.00041-3.55738e-05ZM4.00207 12.6721 0.000735206 20.6755-4.00117 12.6724Z" fill="#CF0360" transform="matrix(-1.00051 0 0 1 274.001 350.822)"/><path d="M1.00041-3.55738e-05 1.0009 14.0061C1.00092 14.5586 0.553042 15.0065 0.000533621 15.0065-0.551975 15.0065-0.999887 14.5586-0.999907 14.0061L-1.00041 3.55738e-05C-1.00042-0.552473-0.552544-1.00039-3.55738e-05-1.00041 0.552473-1.00042 1.00039-0.552544 1.00041-3.55738e-05ZM4.00207 12.6721 0.000735206 20.6755-4.00117 12.6724Z" fill="#CF0360" transform="matrix(-1.00051 0 0 1 275.001 237.88)"/><path d="M206.001 479.757 206.001 495.457C206.001 496.01 205.553 496.458 205.001 496.458 204.448 496.458 204 496.01 204 495.457L203.999 479.757C203.999 479.205 204.447 478.757 205 478.757 205.553 478.757 206.001 479.205 206.001 479.757ZM209.004 494.123 205.001 502.127 200.997 494.124Z" fill="#CF0360"/><path d="M345.001 479.757 345.001 495.457C345.001 496.01 344.553 496.458 344 496.458 343.447 496.458 342.999 496.01 342.999 495.457L342.999 479.757C342.999 479.205 343.447 478.757 344 478.757 344.553 478.757 345.001 479.205 345.001 479.757ZM348.004 494.123 344 502.127 339.996 494.123Z" fill="#CF0360"/><rect x="284.5" y="533.23" width="243" height="72.9631" stroke="#221E5B" stroke-width="1.33455" stroke-miterlimit="8" fill="#FFFFFF"/><text font-family="Tahoma,Tahoma_MSFontService,sans-serif" font-weight="400" font-size="13" transform="matrix(1 0 0 0.999494 316.645 550)">We will respond to any</text><text fill="#221E5B" font-family="Tahoma,Tahoma_MSFontService,sans-serif" font-weight="700" font-size="13" transform="matrix(1 0 0 0.999494 451.602 550)">formal</text><text fill="#221E5B" font-family="Tahoma,Tahoma_MSFontService,sans-serif" font-weight="700" font-size="13" transform="matrix(1 0 0 0.999494 307.971 566)">complaint</text><text font-family="Tahoma,Tahoma_MSFontService,sans-serif" font-weight="400" font-size="13" transform="matrix(1 0 0 0.999494 376.867 566)">before we finalise and</text><text font-family="Tahoma,Tahoma_MSFontService,sans-serif" font-weight="400" font-size="13" transform="matrix(1 0 0 0.999494 315.144 581)">send the report to the provider​.</text><rect x="140.5" y="61.4689" width="269" height="56.9712" stroke="#221E5B" stroke-width="1.33455" stroke-linecap="round" stroke-linejoin="round" stroke-miterlimit="10" fill="#FFFFFF"/><text font-family="Tahoma,Tahoma_MSFontService,sans-serif" font-weight="400" font-size="13" transform="matrix(1 0 0 0.999494 162.231 78)">The provider should raise any concerns</text><text font-family="Tahoma,Tahoma_MSFontService,sans-serif" font-weight="400" font-size="13" transform="matrix(1 0 0 0.999494 177.331 94)">during an inspection with the lead</text><text font-family="Tahoma,Tahoma_MSFontService,sans-serif" font-weight="400" font-size="13" transform="matrix(1 0 0 0.999494 189.589 109)">inspector in the first instance.</text><rect x="140.5" y="174.412" width="269" height="56.9711" stroke="#221E5B" stroke-width="1.33455" stroke-miterlimit="8" fill="#FFFFFF"/><text font-family="Tahoma,Tahoma_MSFontService,sans-serif" font-weight="400" font-size="13" transform="matrix(1 0 0 0.999494 173.659 192)">If an issue remains unresolved, the</text><text font-family="Tahoma,Tahoma_MSFontService,sans-serif" font-weight="400" font-size="13" transform="matrix(1 0 0 0.999494 173.825 208)">provider can ring Ofsted during the</text><text font-family="Tahoma,Tahoma_MSFontService,sans-serif" font-weight="400" font-size="13" transform="matrix(1 0 0 0.999494 178.496 223)">inspection or after the inspection.</text><rect x="140.5" y="288.354" width="269" height="56.9711" stroke="#221E5B" stroke-width="1.33455" stroke-miterlimit="8" fill="#FFFFFF"/><text font-family="Tahoma,Tahoma_MSFontService,sans-serif" font-weight="400" font-size="13" transform="matrix(1 0 0 0.999494 152.553 305)">We will normally send a draft report to the</text><text font-family="Tahoma,Tahoma_MSFontService,sans-serif" font-weight="400" font-size="13" transform="matrix(1 0 0 0.999494 151.472 321)">provider within 18 working days of the end</text><text font-family="Tahoma,Tahoma_MSFontService,sans-serif" font-weight="400" font-size="13" transform="matrix(1 0 0 0.999494 224.952 336)">of the inspection​.</text><rect x="140.5" y="402.296" width="269" height="71.9635" stroke="#221E5B" stroke-width="1.33455" stroke-miterlimit="8" fill="#FFFFFF"/><text font-family="Tahoma,Tahoma_MSFontService,sans-serif" font-weight="400" font-size="13" transform="matrix(1 0 0 0.999494 149.637 419)">Within 5 working days of us sending a draft</text><text font-family="Tahoma,Tahoma_MSFontService,sans-serif" font-weight="400" font-size="13" transform="matrix(1 0 0 0.999494 153.14 435)">report, the provider can raise minor points</text><text font-family="Tahoma,Tahoma_MSFontService,sans-serif" font-weight="400" font-size="13" transform="matrix(1 0 0 0.999494 171.99 450)">about the report</text><text fill="#221E5B" font-family="Tahoma,Tahoma_MSFontService,sans-serif" font-weight="700" font-size="13" transform="matrix(1 0 0 0.999494 269.412 450)">or</text><text font-family="Tahoma,Tahoma_MSFontService,sans-serif" font-weight="400" font-size="13" transform="matrix(1 0 0 0.999494 286.928 450)">submit a formal</text><text font-family="Tahoma,Tahoma_MSFontService,sans-serif" font-weight="400" font-size="13" transform="matrix(1 0 0 0.999494 244.723 466)">complaint​.</text><rect x="140.5" y="663.164" width="269" height="103.947" stroke="#221E5B" stroke-width="1.33455" stroke-miterlimit="8" fill="#FFFFFF"/><text font-family="Tahoma,Tahoma_MSFontService,sans-serif" font-weight="400" font-size="13" transform="matrix(1 0 0 0.999494 159.478 680)">We will normally send the final report to</text><text font-family="Tahoma,Tahoma_MSFontService,sans-serif" font-weight="400" font-size="13" transform="matrix(1 0 0 0.999494 152.885 696)">the provider within 30 working days of the</text><text font-family="Tahoma,Tahoma_MSFontService,sans-serif" font-weight="400" font-size="13" transform="matrix(1 0 0 0.999494 157.476 711)">end of the inspection (longer if there has</text><text font-family="Tahoma,Tahoma_MSFontService,sans-serif" font-weight="400" font-size="13" transform="matrix(1 0 0 0.999494 220.78 727)">been a complaint).​</text><text font-family="Tahoma,Tahoma_MSFontService,sans-serif" font-weight="400" font-size="13" transform="matrix(1 0 0 0.999494 150.303 742)">The report will be published on our website</text><text font-family="Tahoma,Tahoma_MSFontService,sans-serif" font-weight="400" font-size="13" transform="matrix(1 0 0 0.999494 216.276 758)">5 working days later​</text><path d="M144.167 39.48 405.833 39.48C407.858 39.48 409.5 41.1208 409.5 43.1449L409.5 61.4689 140.5 61.4689 140.5 43.1449C140.5 41.1208 142.142 39.48 144.167 39.48Z" stroke="#221E5B" stroke-width="1.33455" stroke-linejoin="round" stroke-miterlimit="10" fill="#221E5B" fill-rule="evenodd"/><text fill="#FFFFFF" font-family="Tahoma,Tahoma_MSFontService,sans-serif" font-weight="400" font-size="13" transform="matrix(1 0 0 0.999494 256.15 56)">Step 1</text><rect x="21.5" y="533.23" width="242" height="72.9631" stroke="#221E5B" stroke-width="1.33455" stroke-miterlimit="8" fill="#FFFFFF"/><text font-family="Tahoma,Tahoma_MSFontService,sans-serif" font-weight="400" font-size="13" transform="matrix(1 0 0 0.999494 43.7002 550)">We will consider</text><text fill="#221E5B" font-family="Tahoma,Tahoma_MSFontService,sans-serif" font-weight="700" font-size="13" transform="matrix(1 0 0 0.999494 140.622 550)">minor points of</text><text fill="#221E5B" font-family="Tahoma,Tahoma_MSFontService,sans-serif" font-weight="700" font-size="13" transform="matrix(1 0 0 0.999494 35.6929 566)">clarity or factual accuracy</text><text font-family="Tahoma,Tahoma_MSFontService,sans-serif" font-weight="400" font-size="13" transform="matrix(1 0 0 0.999494 208.851 566)">quickly</text><text font-family="Tahoma,Tahoma_MSFontService,sans-serif" font-weight="400" font-size="13" transform="matrix(1 0 0 0.999494 41.3648 581)">so that the report can be published</text><text font-family="Tahoma,Tahoma_MSFontService,sans-serif" font-weight="400" font-size="13" transform="matrix(1 0 0 0.999494 114.511 597)">promptly​.</text><path d="M25.3333 510.242 259.667 510.242C261.784 510.242 263.5 511.957 263.5 514.073L263.5 533.23 21.5 533.23 21.5 514.073C21.5 511.957 23.2162 510.242 25.3333 510.242Z" stroke="#221E5B" stroke-width="1.33455" stroke-linejoin="round" stroke-miterlimit="10" fill="#221E5B" fill-rule="evenodd"/><text fill="#FFFFFF" font-family="Tahoma,Tahoma_MSFontService,sans-serif" font-weight="400" font-size="13" transform="matrix(1 0 0 0.999494 120.187 527)">Step 5a</text><path d="M288.333 510.242 523.667 510.242C525.784 510.242 527.5 511.957 527.5 514.073L527.5 533.23 284.5 533.23 284.5 514.073C284.5 511.957 286.216 510.242 288.333 510.242Z" stroke="#221E5B" stroke-width="1.33455" stroke-linejoin="round" stroke-miterlimit="10" fill="#221E5B" fill-rule="evenodd"/><text fill="#FFFFFF" font-family="Tahoma,Tahoma_MSFontService,sans-serif" font-weight="400" font-size="13" transform="matrix(1 0 0 0.999494 383.623 527)">Step 5b</text><path d="M144.334 151.423 405.667 151.423C407.784 151.423 409.5 153.139 409.5 155.255L409.5 174.412 140.5 174.412 140.5 155.255C140.5 153.139 142.216 151.423 144.334 151.423Z" stroke="#221E5B" stroke-width="1.33455" stroke-linejoin="round" stroke-miterlimit="10" fill="#221E5B" fill-rule="evenodd"/><text fill="#FFFFFF" font-family="Tahoma,Tahoma_MSFontService,sans-serif" font-weight="400" font-size="13" transform="matrix(1 0 0 0.999494 256.15 168)">Step 2</text><path d="M144.334 265.366 405.667 265.366C407.784 265.366 409.5 267.081 409.5 269.197L409.5 288.354 140.5 288.354 140.5 269.197C140.5 267.081 142.216 265.366 144.334 265.366Z" stroke="#221E5B" stroke-width="1.33455" stroke-linejoin="round" stroke-miterlimit="10" fill="#221E5B" fill-rule="evenodd"/><text fill="#FFFFFF" font-family="Tahoma,Tahoma_MSFontService,sans-serif" font-weight="400" font-size="13" transform="matrix(1 0 0 0.999494 256.15 282)">Step 3</text><path d="M144.167 379.308 405.833 379.308C407.858 379.308 409.5 380.949 409.5 382.973L409.5 401.297 140.5 401.297 140.5 382.973C140.5 380.949 142.142 379.308 144.167 379.308Z" stroke="#221E5B" stroke-width="1.33455" stroke-linejoin="round" stroke-miterlimit="10" fill="#221E5B" fill-rule="evenodd"/><text fill="#FFFFFF" font-family="Tahoma,Tahoma_MSFontService,sans-serif" font-weight="400" font-size="13" transform="matrix(1 0 0 0.999494 256.15 395)">Step 4</text><path d="M144.334 640.176 405.667 640.176C407.784 640.176 409.5 641.891 409.5 644.007L409.5 663.164 140.5 663.164 140.5 644.007C140.5 641.891 142.216 640.176 144.334 640.176Z" stroke="#221E5B" stroke-width="1.33455" stroke-linejoin="round" stroke-miterlimit="10" fill="#221E5B" fill-rule="evenodd"/><text fill="#FFFFFF" font-family="Tahoma,Tahoma_MSFontService,sans-serif" font-weight="400" font-size="13" transform="matrix(1 0 0 0.999494 256.149 657)">Step 6</text></g></svg>